# xmcd CD database file
#
# Track frame offsets:
#	225
#	23436
#	36440
#	53363
#	78135
#	101048
#	119806
#	147604
#
# Disc length: 2764 seconds
#
# Revision: 2
# Processed by: cddbd v1.5.2PL0 Copyright (c) Steve Scherf et al.
# Submitted via: CDex 1.83
#
DISCID=660ac908
DTITLE=Happy Master - Temple Flute - Secret of the Dragon
DYEAR=2002
DGENRE=New Age
TTITLE0=The Quiet Morning - Sun Arises
TTITLE1=Master Calls His Students to the Temple
TTITLE2=Master Instructs the Students in Deep Meditation
TTITLE3=Master Corrects Those Who Go Astray
TTITLE4=Master Shows the Sleeping Dragon
TTITLE5=Master Wakes the Dragon
TTITLE6=Master Tames the Dragon
TTITLE7=Master Makes the Dragon Tell His Secrets
EXTD=YEAR: 2002
EXTT0=
EXTT1=
EXTT2=
EXTT3=
EXTT4=
EXTT5=
EXTT6=
EXTT7=
PLAYORDER=
